<?xml version="1.0" encoding="UTF-8" standalone="no"?>
<!-- Created with Inkscape (http://www.inkscape.org/) -->

<svg
   xmlns:dc="http://purl.org/dc/elements/1.1/"
   xmlns:cc="http://creativecommons.org/ns#"
   xmlns:rdf="http://www.w3.org/1999/02/22-rdf-syntax-ns#"
   xmlns:svg="http://www.w3.org/2000/svg"
   xmlns="http://www.w3.org/2000/svg"
   xmlns:sodipodi="http://sodipodi.sourceforge.net/DTD/sodipodi-0.dtd"
   xmlns:inkscape="http://www.inkscape.org/namespaces/inkscape"
   width="175.54224"
   height="169.45113"
   viewBox="0 0 46.445549 44.833945"
   version="1.1"
   id="svg3807"
   inkscape:version="0.92.4 (5da689c313, 2019-01-14)"
   sodipodi:docname="kakashi.svg">
  <defs
     id="defs3801" />
  <sodipodi:namedview
     id="base"
     pagecolor="#ffffff"
     bordercolor="#666666"
     borderopacity="1.0"
     inkscape:pageopacity="0.0"
     inkscape:pageshadow="2"
     inkscape:zoom="1.979899"
     inkscape:cx="32.440629"
     inkscape:cy="61.433132"
     inkscape:document-units="px"
     inkscape:current-layer="layer1"
     showgrid="false"
     units="px"
     fit-margin-top="0"
     fit-margin-left="0"
     fit-margin-right="0"
     fit-margin-bottom="0"
     inkscape:window-width="1366"
     inkscape:window-height="705"
     inkscape:window-x="-8"
     inkscape:window-y="-8"
     inkscape:window-maximized="1"
     inkscape:snap-global="false" />
  <metadata
     id="metadata3804">
    <rdf:RDF>
      <cc:Work
         rdf:about="">
        <dc:format>image/svg+xml</dc:format>
        <dc:type
           rdf:resource="http://purl.org/dc/dcmitype/StillImage" />
        <dc:title></dc:title>
      </cc:Work>
    </rdf:RDF>
  </metadata>
  <g
     inkscape:label="Layer 1"
     inkscape:groupmode="layer"
     id="layer1"
     transform="translate(-95.575146,-79.547315)">
    <g
       id="g3737"
       transform="translate(134.17671,22.129649)">
      <path
         inkscape:connector-curvature="0"
         id="path1906"
         d="m -4.1050126,74.517805 a 1.026498,1.6609088 14.683998 0 1 0.2057237,0.01974 1.026498,1.6609088 14.683998 0 1 0.5719679,1.866827 1.026498,1.6609088 14.683998 0 1 -1.4139455,1.346402 1.026498,1.6609088 14.683998 0 1 -0.07635,-0.02578 c 0.095401,-0.662245 0.1385035,-1.355039 0.1385035,-2.068797 0,-0.224674 0.017583,-0.548646 0.037037,-0.904948 a 1.026498,1.6609088 14.683998 0 1 0.5370634,-0.233451 z"
         style="opacity:1;fill:#ffe3ed;fill-opacity:1;stroke:#000000;stroke-width:0.47569606;stroke-linecap:round;stroke-linejoin:round;stroke-miterlimit:4;stroke-dasharray:none;stroke-opacity:1" />
      <path
         style="opacity:1;fill:#ffe3ed;fill-opacity:1;stroke:#000000;stroke-width:0.47569606;stroke-linecap:round;stroke-linejoin:round;stroke-miterlimit:4;stroke-dasharray:none;stroke-opacity:1"
         d="m -24.875553,74.517805 a 1.6609088,1.026498 75.316002 0 0 -0.205724,0.01974 1.6609088,1.026498 75.316002 0 0 -0.571968,1.866827 1.6609088,1.026498 75.316002 0 0 1.413946,1.346402 1.6609088,1.026498 75.316002 0 0 0.07635,-0.02578 c -0.0954,-0.662245 -0.138503,-1.355039 -0.138503,-2.068797 0,-0.224674 -0.01758,-0.548646 -0.03704,-0.904948 a 1.6609088,1.026498 75.316002 0 0 -0.537063,-0.233451 z"
         id="path1908"
         inkscape:connector-curvature="0" />
      <path
         id="path1910"
         d="m -26.696153,81.794227 8.744524,5.334992 -2.125639,2.575329 -7.537561,-5.498232 c -0.646344,-0.04072 1.382248,-2.033134 0.918676,-2.412089 z"
         style="opacity:1;fill:#000000;fill-opacity:1;stroke:#000000;stroke-width:0.4673636;stroke-linecap:butt;stroke-linejoin:miter;stroke-miterlimit:4;stroke-dasharray:none;stroke-opacity:1"
         inkscape:connector-curvature="0" />
      <path
         sodipodi:nodetypes="ccccc"
         inkscape:connector-curvature="0"
         id="path1912"
         d="m -16.758951,83.571964 v 5.557027 h 4.40889 v -5.557027 z"
         style="opacity:1;fill:#ffe3ed;fill-opacity:1;stroke:#000000;stroke-width:0.47569606;stroke-linecap:butt;stroke-linejoin:miter;stroke-miterlimit:4;stroke-dasharray:none;stroke-opacity:1" />
      <path
         inkscape:connector-curvature="0"
         style="opacity:1;fill:#000000;fill-opacity:1;stroke:#000000;stroke-width:0.4673636;stroke-linecap:butt;stroke-linejoin:miter;stroke-miterlimit:4;stroke-dasharray:none;stroke-opacity:1"
         d="m -2.6096506,81.794227 -8.7445244,5.334992 2.1256396,2.575329 7.537561,-5.498232 c 0.6463438,-0.04072 -1.3822484,-2.033134 -0.9186762,-2.412089 z"
         id="path1916" />
      <ellipse
         style="opacity:1;fill:#ffe3ed;fill-opacity:1;stroke:#000000;stroke-width:0.40921491;stroke-linecap:round;stroke-linejoin:round;stroke-miterlimit:4;stroke-dasharray:none;stroke-opacity:1"
         id="ellipse1918"
         cx="40.530602"
         cy="71.72728"
         rx="1.1691855"
         ry="1.8917819"
         transform="matrix(-0.87892226,0.47696505,0.47696505,0.87892226,0,0)" />
      <path
         inkscape:connector-curvature="0"
         style="fill:#008000;stroke:#000000;stroke-width:0.47569609;stroke-linecap:butt;stroke-linejoin:miter;stroke-miterlimit:4;stroke-dasharray:none;stroke-opacity:1"
         d="m -17.424843,86.708605 -2.625986,3.384683 -0.867403,11.279392 c 0,0 4.118292,0.63021 6.208205,0.64108 0.04903,0 0.104416,-0.001 0.155534,-0.002 0.05111,0 0.106489,0.002 0.155524,0.002 2.089914,-0.0109 6.2082051,-0.64108 6.2082051,-0.64108 l -0.8674032,-11.279392 -2.6259849,-3.384683 -2.870341,0.02378 z"
         id="path1920" />
      <path
         style="fill:none;stroke:#000000;stroke-width:0.47569606;stroke-linecap:square;stroke-linejoin:miter;stroke-miterlimit:4;stroke-dasharray:none;stroke-opacity:1"
         d="M -14.554506,86.728894 V 102.00923"
         id="path1922"
         inkscape:connector-curvature="0" />
      <ellipse
         transform="rotate(28.487372)"
         ry="1.8917819"
         rx="1.1691855"
         cy="85.705124"
         cx="14.773078"
         id="ellipse1924"
         style="opacity:1;fill:#ffe3ed;fill-opacity:1;stroke:#000000;stroke-width:0.40921491;stroke-linecap:round;stroke-linejoin:round;stroke-miterlimit:4;stroke-dasharray:none;stroke-opacity:1" />
      <g
         transform="matrix(0.18711134,0,0,0.18711134,-68.132834,34.181043)"
         id="g1938">
        <path
           inkscape:connector-curvature="0"
           style="opacity:1;fill:#005f00;fill-opacity:1;stroke:#000000;stroke-width:1.32291663;stroke-linecap:square;stroke-linejoin:round;stroke-miterlimit:4;stroke-dasharray:none;stroke-opacity:1"
           d="m 293.6875,309.17081 h 5.29167 v 15.875 h -5.29167 z"
           id="path1926" />
        <path
           id="path1928"
           d="m 298.97917,309.17081 h 5.29167 v 15.875 h -5.29167 z"
           style="opacity:1;fill:#005f00;fill-opacity:1;stroke:#000000;stroke-width:1.32291663;stroke-linecap:square;stroke-linejoin:round;stroke-miterlimit:4;stroke-dasharray:none;stroke-opacity:1"
           inkscape:connector-curvature="0" />
        <path
           inkscape:connector-curvature="0"
           style="opacity:1;fill:#005f00;fill-opacity:1;stroke:#000000;stroke-width:1.32291663;stroke-linecap:square;stroke-linejoin:round;stroke-miterlimit:4;stroke-dasharray:none;stroke-opacity:1"
           d="m 304.27084,309.17081 h 5.29167 v 15.875 h -5.29167 z"
           id="path1930" />
        <path
           id="path1932"
           d="m 293.50152,303.55926 h 5.41566 v 8.01506 h -5.41566 z"
           style="opacity:1;fill:#004600;fill-opacity:1;stroke:#000000;stroke-width:0.95091248;stroke-linecap:square;stroke-linejoin:round;stroke-miterlimit:4;stroke-dasharray:none;stroke-opacity:1"
           inkscape:connector-curvature="0" />
        <path
           inkscape:connector-curvature="0"
           style="opacity:1;fill:#004600;fill-opacity:1;stroke:#000000;stroke-width:0.95091248;stroke-linecap:square;stroke-linejoin:round;stroke-miterlimit:4;stroke-dasharray:none;stroke-opacity:1"
           d="m 298.91718,303.55926 h 5.41565 v 8.01506 h -5.41565 z"
           id="path1934" />
        <path
           id="path1936"
           d="m 304.33283,303.55926 h 5.41566 v 8.01506 h -5.41566 z"
           style="opacity:1;fill:#004600;fill-opacity:1;stroke:#000000;stroke-width:0.95091248;stroke-linecap:square;stroke-linejoin:round;stroke-miterlimit:4;stroke-dasharray:none;stroke-opacity:1"
           inkscape:connector-curvature="0" />
      </g>
      <g
         id="g1952"
         transform="matrix(0.18711134,0,0,0.18711134,-73.85109,34.181043)">
        <path
           id="path1940"
           d="m 293.6875,309.17081 h 5.29167 v 15.875 h -5.29167 z"
           style="opacity:1;fill:#005f00;fill-opacity:1;stroke:#000000;stroke-width:1.32291663;stroke-linecap:square;stroke-linejoin:round;stroke-miterlimit:4;stroke-dasharray:none;stroke-opacity:1"
           inkscape:connector-curvature="0" />
        <path
           inkscape:connector-curvature="0"
           style="opacity:1;fill:#005f00;fill-opacity:1;stroke:#000000;stroke-width:1.32291663;stroke-linecap:square;stroke-linejoin:round;stroke-miterlimit:4;stroke-dasharray:none;stroke-opacity:1"
           d="m 298.97917,309.17081 h 5.29167 v 15.875 h -5.29167 z"
           id="path1942" />
        <path
           id="path1944"
           d="m 304.27084,309.17081 h 5.29167 v 15.875 h -5.29167 z"
           style="opacity:1;fill:#005f00;fill-opacity:1;stroke:#000000;stroke-width:1.32291663;stroke-linecap:square;stroke-linejoin:round;stroke-miterlimit:4;stroke-dasharray:none;stroke-opacity:1"
           inkscape:connector-curvature="0" />
        <path
           inkscape:connector-curvature="0"
           style="opacity:1;fill:#004600;fill-opacity:1;stroke:#000000;stroke-width:0.95091248;stroke-linecap:square;stroke-linejoin:round;stroke-miterlimit:4;stroke-dasharray:none;stroke-opacity:1"
           d="m 293.50152,303.55926 h 5.41566 v 8.01506 h -5.41566 z"
           id="path1946" />
        <path
           id="path1948"
           d="m 298.91718,303.55926 h 5.41565 v 8.01506 h -5.41565 z"
           style="opacity:1;fill:#004600;fill-opacity:1;stroke:#000000;stroke-width:0.95091248;stroke-linecap:square;stroke-linejoin:round;stroke-miterlimit:4;stroke-dasharray:none;stroke-opacity:1"
           inkscape:connector-curvature="0" />
        <path
           inkscape:connector-curvature="0"
           style="opacity:1;fill:#004600;fill-opacity:1;stroke:#000000;stroke-width:0.95091248;stroke-linecap:square;stroke-linejoin:round;stroke-miterlimit:4;stroke-dasharray:none;stroke-opacity:1"
           d="m 304.33283,303.55926 h 5.41566 v 8.01506 h -5.41566 z"
           id="path1950" />
      </g>
      <path
         style="opacity:1;fill:#fdefe1;fill-opacity:1;stroke:#000000;stroke-width:0.47569606;stroke-linecap:round;stroke-linejoin:round;stroke-miterlimit:4;stroke-dasharray:none;stroke-opacity:1"
         d="m -4.897875,76.395664 c 0,5.333209 -2.0771357,9.656627 -9.656627,9.656627 -7.579492,0 -9.656631,-4.323418 -9.656631,-9.656627 0,-0.856214 -0.221553,-2.923209 -0.01241,-3.713659 1.093634,-4.133124 5.192034,-5.942972 9.669029,-5.942972 4.315699,0 8.4578953,1.737889 9.6952577,5.644186 0.2917319,0.920984 -0.03863,2.994934 -0.03863,4.012445 z"
         id="path1954"
         inkscape:connector-curvature="0"
         sodipodi:nodetypes="szsssss" />
      <path
         style="opacity:1;fill:#000000;fill-opacity:1;stroke:#000000;stroke-width:0.360677;stroke-linecap:square;stroke-linejoin:round;stroke-miterlimit:4;stroke-dasharray:none;stroke-opacity:1"
         d="m -14.554524,77.007538 c -2.692149,1.686253 -5.79704,2.375427 -9.249398,2.225265 0.0018,0.02204 0.004,0.04285 0.0058,0.06477 0.902639,3.953183 3.479359,6.745328 9.243649,6.745328 5.6494604,0 8.2385643,-2.680977 9.1892469,-6.509396 0.00406,-0.04765 0.00885,-0.09347 0.012621,-0.141761 -3.5821956,0.449092 -6.3535349,-1.060549 -9.2018679,-2.384211 z"
         id="path1956"
         inkscape:connector-curvature="0" />
      <g
         transform="matrix(0.35958129,0,0,0.35958129,-139.37734,-20.648203)"
         id="g1962">
        <path
           sodipodi:nodetypes="ccccccccccccccccccccccccccccccccccc"
           inkscape:connector-curvature="0"
           id="path1958"
           d="m 349.52072,219.62251 -6.47946,9.68226 1.39552,6.76731 4.73953,-5.63684 z m 16.32077,1.14751 -10.22614,10.60573 -0.64088,6.75182 6.80665,-6.38584 z m -29.33415,0.21887 -2.24875,9.7442 3.7386,9.82369 0.84031,-4.97043 -0.45009,0.67259 z m -12.17037,5.70498 1.57717,9.38337 3.20387,3.22983 0.22801,-3.36661 z m 48.98117,5.26672 -7.51049,3.19525 -2.83231,6.61585 8.71834,-4.87581 z m -53.31104,5.87017 5.50116,7.02437 -1.04246,-4.25189 z m 3.11225,16.55538 0.0507,0.18686 h 43.70854 l 0.0728,-0.18686 z"
           style="fill:#ffffff;fill-opacity:1;stroke:#000000;stroke-width:1.35034919;stroke-linecap:butt;stroke-linejoin:miter;stroke-miterlimit:6.0999999;stroke-dasharray:none;stroke-opacity:1" />
        <path
           sodipodi:nodetypes="cccccccccccccccccc"
           inkscape:connector-curvature="0"
           id="path1960"
           d="m 319.65377,254.38634 -3.51261,-21.49147 9.3669,11.96046 -2.99118,-12.20226 6.60119,6.65395 1.26857,-18.74639 7.61059,19.99641 3.31745,-19.62264 3.12229,15.13746 12.09889,-14.38994 -1.56113,16.44565 19.12403,-17.9407 -10.53773,21.02426 15.80662,-9.43756 -7.6106,11.77358 5.82083,-1.09348 -4.64997,11.93266 z"
           style="fill:#ffffff;stroke:#000000;stroke-width:1.35034919;stroke-linecap:butt;stroke-linejoin:miter;stroke-miterlimit:6.0999999;stroke-dasharray:none;stroke-opacity:1" />
      </g>
      <path
         style="opacity:1;fill:#2b2b55;fill-opacity:1;stroke:#000000;stroke-width:0.47569606;stroke-linecap:round;stroke-linejoin:round;stroke-miterlimit:4;stroke-dasharray:none;stroke-opacity:1"
         d="m -23.211217,67.91933 h 17.2886253 c 0.7020501,0 1.2672292,0.532482 1.2672292,1.193907 v 3.155318 c 0,0.661425 -0.5651791,1.193907 -1.2672292,1.193907 H -23.211217 c -0.702047,0 -1.267226,-0.532482 -1.267226,-1.193907 v -3.155318 c 0,-0.661425 0.565179,-1.193907 1.267226,-1.193907 z"
         id="path1964"
         inkscape:connector-curvature="0" />
      <path
         inkscape:connector-curvature="0"
         id="path1966"
         d="m -20.888797,68.622027 h 12.6437884 c 0.5134317,0 0.9267704,0.397481 0.9267704,0.891208 v 2.355322 c 0,0.493727 -0.4133387,0.891208 -0.9267704,0.891208 H -20.888797 c -0.513435,0 -0.926774,-0.397481 -0.926774,-0.891208 v -2.355322 c 0,-0.493727 0.413339,-0.891208 0.926774,-0.891208 z"
         style="opacity:1;fill:#9d9d9d;fill-opacity:1;stroke:#000000;stroke-width:0.19027844;stroke-linecap:round;stroke-linejoin:round;stroke-miterlimit:4;stroke-dasharray:none;stroke-opacity:1" />
      <g
         id="g1972"
         transform="matrix(0.35958129,0,0,0.35958129,-139.37734,-19.982229)">
        <ellipse
           style="opacity:1;fill:#000000;fill-opacity:1;stroke:#000000;stroke-width:0.26458335;stroke-linecap:round;stroke-linejoin:round;stroke-miterlimit:4;stroke-dasharray:none;stroke-opacity:1"
           id="ellipse1968"
           cx="330.49213"
           cy="268.18835"
           rx="2.525697"
           ry="3.7417731" />
        <ellipse
           ry="3.7417731"
           rx="2.525697"
           cy="268.18835"
           cx="365.29062"
           id="ellipse1970"
           style="opacity:1;fill:#000000;fill-opacity:1;stroke:#000000;stroke-width:0.26458335;stroke-linecap:round;stroke-linejoin:round;stroke-miterlimit:4;stroke-dasharray:none;stroke-opacity:1" />
      </g>
      <g
         transform="matrix(0.35958129,0,0,0.35958129,-139.37734,-20.648203)"
         id="g1986">
        <path
           inkscape:connector-curvature="0"
           id="path1974"
           d="m 330.92879,250.34234 a 0.81612,0.72905325 0 0 1 -0.81611,0.72905 0.81612,0.72905325 0 0 1 -0.81612,-0.72905 0.81612,0.72905325 0 0 1 0.81612,-0.72905 0.81612,0.72905325 0 0 1 0.81611,0.72905 z"
           style="opacity:1;fill:#000000;fill-opacity:1;stroke:none;stroke-width:2.31407738;stroke-linecap:round;stroke-linejoin:round;stroke-miterlimit:4;stroke-dasharray:none;stroke-opacity:1" />
        <path
           inkscape:connector-curvature="0"
           style="opacity:1;fill:#000000;fill-opacity:1;stroke:none;stroke-width:2.31407738;stroke-linecap:round;stroke-linejoin:round;stroke-miterlimit:4;stroke-dasharray:none;stroke-opacity:1"
           d="m 330.92879,257.68798 a 0.81612,0.72905325 0 0 1 -0.81611,0.72905 0.81612,0.72905325 0 0 1 -0.81612,-0.72905 0.81612,0.72905325 0 0 1 0.81612,-0.72906 0.81612,0.72905325 0 0 1 0.81611,0.72906 z"
           id="path1976" />
        <path
           id="path1978"
           d="m 364.90217,257.68798 a 0.81612,0.72905325 0 0 1 -0.81612,0.72905 0.81612,0.72905325 0 0 1 -0.81612,-0.72905 0.81612,0.72905325 0 0 1 0.81612,-0.72906 0.81612,0.72905325 0 0 1 0.81612,0.72906 z"
           style="opacity:1;fill:#000000;fill-opacity:1;stroke:none;stroke-width:2.31407738;stroke-linecap:round;stroke-linejoin:round;stroke-miterlimit:4;stroke-dasharray:none;stroke-opacity:1"
           inkscape:connector-curvature="0" />
        <path
           inkscape:connector-curvature="0"
           style="opacity:1;fill:#000000;fill-opacity:1;stroke:none;stroke-width:2.31407738;stroke-linecap:round;stroke-linejoin:round;stroke-miterlimit:4;stroke-dasharray:none;stroke-opacity:1"
           d="m 364.90217,250.34234 a 0.81612,0.72905325 0 0 1 -0.81612,0.72905 0.81612,0.72905325 0 0 1 -0.81612,-0.72905 0.81612,0.72905325 0 0 1 0.81612,-0.72905 0.81612,0.72905325 0 0 1 0.81612,0.72905 z"
           id="path1980" />
        <path
           id="path1982"
           d="m 330.69162,254.01516 a 0.81612,0.72905325 0 0 1 -0.81611,0.72905 0.81612,0.72905325 0 0 1 -0.81612,-0.72905 0.81612,0.72905325 0 0 1 0.81612,-0.72906 0.81612,0.72905325 0 0 1 0.81611,0.72906 z"
           style="opacity:1;fill:#000000;fill-opacity:1;stroke:none;stroke-width:2.31407738;stroke-linecap:round;stroke-linejoin:round;stroke-miterlimit:4;stroke-dasharray:none;stroke-opacity:1"
           inkscape:connector-curvature="0" />
        <path
           inkscape:connector-curvature="0"
           style="opacity:1;fill:#000000;fill-opacity:1;stroke:none;stroke-width:2.31407738;stroke-linecap:round;stroke-linejoin:round;stroke-miterlimit:4;stroke-dasharray:none;stroke-opacity:1"
           d="m 365.13934,254.01516 a 0.81612,0.72905325 0 0 1 -0.81612,0.72905 0.81612,0.72905325 0 0 1 -0.81612,-0.72905 0.81612,0.72905325 0 0 1 0.81612,-0.72906 0.81612,0.72905325 0 0 1 0.81612,0.72906 z"
           id="path1984" />
      </g>
      <g
         id="g1998"
         transform="matrix(0.30728112,0,0,0.17546257,-148.63911,24.137431)"
         style="stroke-width:1.22919452;stroke-miterlimit:4;stroke-dasharray:none">
        <path
           sodipodi:nodetypes="cssssc"
           inkscape:connector-curvature="0"
           id="path1988"
           d="m 431.4482,267.49013 c -2.37541,0.36647 -3.22324,1.29379 -3.63654,2.38263 -0.45908,1.20944 0.27084,2.29172 2.23285,2.79025 2.91458,0.74058 7.52597,0.50406 10.84898,-0.3652 2.51745,-0.65853 4.29547,-1.6802 4.03612,-2.91528 -0.18673,-0.88926 -1.49576,-2.08757 -4.47768,-2.15001"
           style="fill:none;stroke:#000000;stroke-width:1.22919452;stroke-linecap:round;stroke-linejoin:miter;stroke-miterlimit:4;stroke-dasharray:none;stroke-opacity:1" />
        <g
           transform="translate(0.77737707,0.19843749)"
           id="g1996"
           style="stroke-width:1.22919452;stroke-miterlimit:4;stroke-dasharray:none">
          <path
             style="fill:none;stroke:#000000;stroke-width:1.22919452;stroke-linecap:round;stroke-linejoin:miter;stroke-miterlimit:4;stroke-dasharray:none;stroke-opacity:1"
             d="m 434.18304,270.23324 c -2.86066,-2.03028 -2.00113,-4.28637 -1.11442,-6.49985 1.20569,-3.00976 2.7062,-5.69615 -1.78949,-6.71922"
             id="path1990"
             inkscape:connector-curvature="0"
             sodipodi:nodetypes="csc" />
          <path
             sodipodi:nodetypes="csc"
             inkscape:connector-curvature="0"
             id="path1992"
             d="m 437.02731,270.23324 c -2.86066,-2.03028 -2.00113,-4.28637 -1.11442,-6.49985 1.20569,-3.00976 2.7062,-5.69615 -1.78949,-6.71922"
             style="fill:none;stroke:#000000;stroke-width:1.22919452;stroke-linecap:round;stroke-linejoin:miter;stroke-miterlimit:4;stroke-dasharray:none;stroke-opacity:1" />
          <path
             style="fill:none;stroke:#000000;stroke-width:1.22919452;stroke-linecap:round;stroke-linejoin:miter;stroke-miterlimit:4;stroke-dasharray:none;stroke-opacity:1"
             d="m 439.67314,270.23324 c -2.86066,-2.03028 -2.00113,-4.28637 -1.11442,-6.49985 1.20569,-3.00976 2.7062,-5.69615 -1.78949,-6.71922"
             id="path1994"
             inkscape:connector-curvature="0"
             sodipodi:nodetypes="csc" />
        </g>
      </g>
      <g
         id="g2004"
         transform="matrix(0.34627965,-0.0968974,0.0968974,0.34627965,-117.80312,2.7796897)">
        <rect
           y="287.47498"
           x="253.73541"
           height="22.489584"
           width="7.9375"
           id="rect2000"
           style="opacity:1;fill:#ffc900;fill-opacity:1;stroke:#000000;stroke-width:1.32291663;stroke-linecap:round;stroke-linejoin:round;stroke-miterlimit:4;stroke-dasharray:none;stroke-opacity:1" />
        <path
           inkscape:connector-curvature="0"
           id="path2002"
           d="m 258.2168,289.5293 c -0.63998,-0.0317 -1.49637,-0.0134 -2.63282,0.0586 a 0.39729777,0.39729777 0 1 0 0.0508,0.79297 c 1.11959,-0.0709 1.95371,-0.0878 2.54296,-0.0586 0.57373,0.0284 0.90176,0.11804 1.00586,0.17187 -0.0465,0.0934 -0.20689,0.29866 -0.45703,0.53711 -0.51995,0.49568 -1.34172,1.13943 -2.01367,1.87305 -0.67195,0.73361 -1.24226,1.6014 -1.07227,2.57422 l 0.0313,0.17773 0.15429,0.0938 c 0.34589,0.20753 0.74384,0.23127 1.22852,0.2832 0.48467,0.0519 1.02977,0.0917 1.50781,0.16016 0.47804,0.0685 0.89216,0.18571 1.04688,0.28906 0.0774,0.0517 0.0786,0.0711 0.0801,0.0781 0.001,0.007 0.009,0.0579 -0.0703,0.18945 -0.0837,0.13955 -0.38509,0.38839 -0.79297,0.61523 -0.40787,0.22685 -0.91369,0.44976 -1.39844,0.6543 -0.48474,0.20454 -0.94645,0.3899 -1.29687,0.5625 -0.17521,0.0863 -0.31972,0.16532 -0.44922,0.27149 -0.0647,0.0531 -0.13165,0.11197 -0.1875,0.2207 -0.0527,0.10256 -0.0615,0.2827 -0.002,0.42187 0.33186,1.23181 1.09828,1.81776 1.84179,2.11719 0.75981,0.30599 1.44943,0.43186 1.87696,0.85938 0.0623,0.0623 0.0528,0.0726 0.0527,0.0703 -8e-5,-0.002 0.002,0.0199 -0.043,0.0801 -0.089,0.12038 -0.35254,0.31915 -0.66992,0.49218 -0.31738,0.17304 -0.68376,0.33334 -0.99609,0.4668 -0.15617,0.0667 -0.30006,0.12763 -0.41992,0.18164 -0.11987,0.054 -0.20292,0.0858 -0.3125,0.16797 -0.19207,0.14405 -0.33366,0.26909 -0.43946,0.41797 -0.1058,0.14888 -0.18363,0.37469 -0.11133,0.58594 0.0723,0.21124 0.23088,0.31464 0.35938,0.38086 0.1285,0.0662 0.25775,0.10657 0.39258,0.14453 0.26966,0.0759 0.56326,0.1372 0.79297,0.2207 0.2297,0.0835 0.35677,0.18621 0.38476,0.24219 0.0278,0.0557 0.0243,0.26763 -0.0566,0.55078 -0.0809,0.28314 -0.21875,0.58983 -0.21875,0.95508 a 0.39691468,0.39691468 0 1 0 0.79297,0 c 0,-0.10423 0.0942,-0.40958 0.1875,-0.73633 0.0933,-0.32676 0.20731,-0.72211 0.006,-1.125 -0.17973,-0.35944 -0.51671,-0.52102 -0.82422,-0.63281 -0.30751,-0.11179 -0.62291,-0.17642 -0.84961,-0.24024 -0.0271,-0.008 -0.0344,-0.0119 -0.0586,-0.0195 0.0427,-0.0393 0.0494,-0.0571 0.11914,-0.10937 -0.0248,0.0186 0.0568,-0.0326 0.16211,-0.0801 0.10531,-0.0475 0.24606,-0.10622 0.40429,-0.17383 0.31648,-0.13523 0.70531,-0.30313 1.06641,-0.5 0.3611,-0.19687 0.69827,-0.40838 0.92774,-0.71875 0.11473,-0.15519 0.20493,-0.35277 0.19726,-0.57813 -0.008,-0.22535 -0.1199,-0.44216 -0.2832,-0.60546 -0.65056,-0.65055 -1.4937,-0.77189 -2.14258,-1.03321 -0.60467,-0.24351 -1.05136,-0.57756 -1.32617,-1.48047 0.0542,-0.0331 0.0881,-0.0574 0.17773,-0.10156 0.30197,-0.14874 0.76175,-0.3353 1.25391,-0.54297 0.49216,-0.20766 1.01744,-0.43714 1.47461,-0.6914 0.45717,-0.25426 0.85675,-0.51386 1.08984,-0.90235 0.14318,-0.23863 0.21864,-0.50153 0.16602,-0.75781 -0.0526,-0.25627 -0.2272,-0.45199 -0.41602,-0.57812 -0.37763,-0.25226 -0.85658,-0.33983 -1.375,-0.41407 -0.51842,-0.0742 -1.07369,-0.1144 -1.53711,-0.16406 -0.34525,-0.037 -0.52136,-0.0879 -0.67383,-0.12891 0.01,-0.52426 0.29871,-1.0935 0.83204,-1.67578 0.60827,-0.66409 1.40786,-1.28997 1.97851,-1.83398 0.28533,-0.272 0.52079,-0.51095 0.6543,-0.81641 0.0668,-0.15273 0.10643,-0.34542 0.0469,-0.54101 -0.0596,-0.19559 -0.2097,-0.34642 -0.37304,-0.43946 -0.32669,-0.18607 -0.74674,-0.24759 -1.38672,-0.27929 z"
           style="color:#000000;font-style:normal;font-variant:normal;font-weight:normal;font-stretch:normal;font-size:medium;line-height:normal;font-family:sans-serif;font-variant-ligatures:normal;font-variant-position:normal;font-variant-caps:normal;font-variant-numeric:normal;font-variant-alternates:normal;font-feature-settings:normal;text-indent:0;text-align:start;text-decoration:none;text-decoration-line:none;text-decoration-style:solid;text-decoration-color:#000000;letter-spacing:normal;word-spacing:normal;text-transform:none;writing-mode:lr-tb;direction:ltr;text-orientation:mixed;dominant-baseline:auto;baseline-shift:baseline;text-anchor:start;white-space:normal;shape-padding:0;clip-rule:nonzero;display:inline;overflow:visible;visibility:visible;opacity:1;isolation:auto;mix-blend-mode:normal;color-interpolation:sRGB;color-interpolation-filters:linearRGB;solid-color:#000000;solid-opacity:1;vector-effect:none;fill:#aa0000;fill-opacity:1;fill-rule:nonzero;stroke:none;stroke-width:0.79374999;stroke-linecap:round;stroke-linejoin:miter;stroke-miterlimit:4;stroke-dasharray:none;stroke-dashoffset:0;stroke-opacity:1;color-rendering:auto;image-rendering:auto;shape-rendering:auto;text-rendering:auto;enable-background:accumulate" />
      </g>
      <g
         id="g2012"
         transform="matrix(0.35958129,0,0,0.35958129,-138.57006,-20.379109)">
        <path
           sodipodi:nodetypes="ccccc"
           inkscape:connector-curvature="0"
           id="path2006"
           d="m 279.28818,266.89412 12.87515,3.2438 1.95564,7.1071 -7.48497,0.95768 z"
           style="opacity:1;fill:#000000;fill-opacity:1;stroke:#000000;stroke-width:1.14476752;stroke-linecap:square;stroke-linejoin:miter;stroke-miterlimit:4.19999981;stroke-dasharray:none;stroke-opacity:1" />
        <path
           id="path2008"
           transform="scale(0.26458333)"
           d="m 1148.3418,1056.7578 a 13.435028,13.435028 0 0 0 -13.4356,13.4356 13.435028,13.435028 0 0 0 13.4356,13.4355 13.435028,13.435028 0 0 0 13.4355,-13.4355 13.435028,13.435028 0 0 0 -13.4355,-13.4356 z m 0,6.0723 a 7.3629653,7.3629653 0 0 1 7.3633,7.3633 7.3629653,7.3629653 0 0 1 -7.3633,7.3632 7.3629653,7.3629653 0 0 1 -7.3633,-7.3632 7.3629653,7.3629653 0 0 1 7.3633,-7.3633 z"
           style="opacity:1;fill:#000000;fill-opacity:1;stroke:#000000;stroke-width:3;stroke-linecap:round;stroke-linejoin:round;stroke-miterlimit:4;stroke-dasharray:none;stroke-opacity:1"
           inkscape:connector-curvature="0" />
        <path
           sodipodi:nodetypes="ccccc"
           inkscape:connector-curvature="0"
           id="path2010"
           d="m 291.992,277.4069 1.35614,-2.57749 8.09964,4.92053 -1.35614,2.57749 z"
           style="opacity:1;fill:#666666;fill-opacity:1;stroke:#000000;stroke-width:0.79374999;stroke-linecap:round;stroke-linejoin:round;stroke-miterlimit:4;stroke-dasharray:none;stroke-opacity:1" />
      </g>
    </g>
  </g>
</svg>
