<svg xmlns="http://www.w3.org/2000/svg" width="300" height="300.002" viewBox="0 0 79.375 79.376">
  <path d="M29.8 78.144a39.719 39.719 0 0019.795-.043L39.69 41.185z"/>
  <path d="M29.051 77.938l9.89-36.956-27.039 27.055a39.719 39.719 0 0017.15 9.9z" fill="purple"/>
  <path d="M11.372 67.478l27.024-27.041-36.923 9.908a39.719 39.719 0 009.899 17.133z" fill="#1ee11e"/>
  <path d="M50.34 77.903a39.719 39.719 0 0017.136-9.896L40.433 40.98z" fill="maroon"/>
  <path d="M68.038 67.472a39.719 39.719 0 009.9-17.149l-36.958-9.89z" fill="red"/>
  <path d="M1.274 49.594l36.923-9.905-36.965-9.892a39.719 39.719 0 00.042 19.797z" fill="#fc0"/>
  <path d="M78.143 49.579a39.719 39.719 0 00-.042-19.796L41.184 39.69z" fill="green"/>
  <path d="M38.393 38.942L11.337 11.904a39.719 39.719 0 00-9.9 17.149z" fill="#1b1be4"/>
  <path d="M40.978 38.943l36.925-9.907a39.719 39.719 0 00-9.899-17.138z" fill="navy"/>
  <path d="M38.942 38.397L29.035 1.472a39.719 39.719 0 00-17.137 9.9z" fill="#f5680a"/>
  <path d="M39.686 38.197l9.891-36.965a39.719 39.719 0 00-19.798.043z" fill="#f2f20d"/>
  <path d="M40.436 38.395L67.474 11.34a39.719 39.719 0 00-17.148-9.9z" fill="#1ee"/>
</svg>
